<svg xmlns="http://www.w3.org/2000/svg" viewBox="0 0 1090.16 229.7"><defs><style>.cls-1{fill:#221e1b;}.cls-2{fill:#231e1b;}.cls-3{fill:#231e1c;}.cls-4{fill:#241f1c;}.cls-5{fill:#221d1b;}.cls-6{fill:#e57c20;}.cls-7{fill:#e57b1e;}.cls-8{fill:#0a9344;}.cls-9{fill:#25201e;}.cls-10{fill:#10448b;}.cls-11{fill:#0d9446;}.cls-12{fill:#8bc49b;}</style></defs><title>ims-houston-logo</title><g id="Layer_2" data-name="Layer 2"><g id="Layer_1-2" data-name="Layer 1"><path class="cls-1" d="M510,82.7c4-5.06,6.34-10.51,8.59-15.84,1.89-4.46,3.59-8,9.31-7.89,2,.06,4.07-1.14,6.46-1.87,1.36,17,5,33.3,7.32,49.82.52,3.68.09,5.93-4.26,6.5-3.38.44-6.85,4.61-9.5,2.83-1.92-1.28-1.29-6.21-2-9.48a147.66,147.66,0,0,1-2.54-22.41c-7.07,9.83-11.14,20.6-19.75,29.18l-6.53-25.61c-5.4,9.37-7.94,19.48-11,29.47a7.64,7.64,0,0,1-.88-.2c-9.67-3.47-9.26-3.4-7.43-13.35C480.41,89.9,485.2,76.62,489,63c1.55-5.6,6.68-4,10.12-5.46,2.55-1,2.5,2.7,3.41,4.41C505.89,68.34,507.11,75.53,510,82.7Z" transform="translate(-19.43 -18.25)"/><path class="cls-2" d="M241.43,72.46a33.61,33.61,0,0,0,3.78-3.09c12.48-14.23,28-10.15,42.53-5.7C299.93,67.41,304.05,81.18,299.3,95c-4.43,12.88-17.3,22.21-32.23,22.86-5.71.25-11.45.37-17.22-.85-3.29-.7-4.39-.6-2.67-4.43,5.33-11.88,3.53-24.83,4.73-37.33.26-2.69-.9-4.34-3.94-3.2A13.34,13.34,0,0,1,241.43,72.46Zm25,22.72h.17a45.63,45.63,0,0,1-.35,6.53c-1,4.89,1.44,5.26,5.28,4.4,8-1.82,13.63-10.92,12.43-20.45-1.06-8.41-5.94-13.81-12.65-14.27-2.4-.17-3.54.13-3.62,3C267.54,81.33,266.92,88.25,266.47,95.18Z" transform="translate(-19.43 -18.25)"/><path class="cls-3" d="M816.68,148.93c16.78,0,27.64,11.44,26.93,29.75-.73,18.75-14.45,29.83-28.34,29.79-16.87,0-28.91-12.16-28.37-28.89a30.23,30.23,0,0,1,8.81-20.72C805.05,149.45,806.5,148.91,816.68,148.93Zm10.72,27c-.4-2.43-.67-5.6-1.46-8.63-1.2-4.62-4.08-7.21-9.18-7.78-5.44-.61-8.62,1.65-10.64,6.29a29.81,29.81,0,0,0-.16,24.66c1.73,4,4.71,7.09,9.41,7s8-2.88,9.68-7.44C826.6,185.7,826.91,181.18,827.4,175.94Z" transform="translate(-19.43 -18.25)"/><path class="cls-3" d="M395.2,208.46c-9.73-.75-19-4.44-23.51-15.31-4.66-11.18-4.18-22.21,3.87-31.58,3.53-4.11,5.41-10.29,12.1-11.42,7.1-1.21,14.2-2.45,21.11.36,16.47,6.69,22,29.68,11.08,45.26C414,204.18,405.6,208.7,395.2,208.46Zm13.67-30.08c.08-5.79-.63-9.84-2.31-13.73-1.78-4.13-5.38-4.64-9.3-5.09s-6.55.9-8.3,4.23c-4.68,9-5.16,18.16-.87,27.37,1.77,3.81,4.79,6.48,9.31,6.23s7.69-2.82,9.25-7.18A40.82,40.82,0,0,0,408.87,178.38Z" transform="translate(-19.43 -18.25)"/><path class="cls-2" d="M837.73,58.38c19.85.16,27.46,12.45,27.5,29.1,0,18-13,30.62-28.2,30.35-19.59-.34-27.88-12.24-28.4-28.7C808.25,77.14,821.46,55.67,837.73,58.38Zm11.2,27.8A31.06,31.06,0,0,0,846.42,74c-2.65-5.6-12.23-7.09-16.13-2.66-6.43,7.3-7.06,23.41-1.21,31.15,4.91,6.51,13,5.82,16.81-1.45C848.32,96.35,848.34,91.17,848.93,86.18Z" transform="translate(-19.43 -18.25)"/><path class="cls-1" d="M629,177.55c.06,24.7-23,38.3-44.51,26.31-9.17-5.1-14.75-19.82-10.38-31.89,6.62-18.24,16.78-26.89,36.92-21.82C622.35,153,629,163.38,629,177.55Zm-16.44-.87c0-3.19.07-7.78-2-12-2.82-5.82-12.82-7.33-16.55-2.57-5.86,7.48-6.42,22.15-1.34,30.27,2.08,3.32,4.86,5.35,8.71,5.08s6.89-2.34,8.71-6.18C612.15,187,612.34,182.56,612.57,176.68Z" transform="translate(-19.43 -18.25)"/><path class="cls-3" d="M187.54,115.81c2.14-15.16.5-30,3-44.67a18.69,18.69,0,0,0,.54-2.3c.14-2.36-3.66-4.53-1.63-6.37,2.82-2.56,7-3.39,10.29-5.54,2.3-1.48,2.65,1.56,3.34,2.79,5.43,9.73,10.71,19.54,16.77,30.68,1.5-9.64-.12-17.78.18-25.88.08-2-1.33-4.83,1.2-5.85a49.16,49.16,0,0,1,10.8-2.73c1.65-.25,1.06,1.74,1.06,2.72-.06,16.44.52,32.9-1.17,49.29-.32,3.14-6.45,9.18-9.67,9.4-2.48.18-3.05-2.12-4-3.63-5.15-8.15-10.57-16.14-15.55-26.14-.69,6.27-2,11.2-1.58,16,.52,6.38-2.78,8.89-8,10.48Z" transform="translate(-19.43 -18.25)"/><path class="cls-4" d="M411.58,87.53c-.61,5.2-1.25,8.71-1.4,12.25-.52,12.43-.5,12.49-13.44,15.67.76-12.93,1.52-25.71,2.25-38.49.19-3.36,1.26-7.12.12-10-1.72-4.34-.07-5.52,3.45-6.46,2.82-.76,5-4.81,7.77-3.27,2.2,1.25,3.1,4.84,4.5,7.44,4.46,8.18,8.88,16.38,14.39,24.25,0-8,.38-16-.14-24-.33-4.92,1.26-7.09,6-7.67,2.31-.28,4.54-1.21,7.24-2,0,17.49.08,34.84-1.33,52.14-.45,5.52-5.43,7.46-9.38,10-2.22,1.4-2.63-1.18-3.33-2.25C422.65,106.59,416.92,98.12,411.58,87.53Z" transform="translate(-19.43 -18.25)"/><path class="cls-2" d="M867.28,179.26c-2.45,4.67-1.42,8.92-1.62,13-.43,9.15-2.06,10.89-13.5,13.71.6-14.21.34-28.39,2.59-42.43a13.78,13.78,0,0,0,.13-4.15c-.34-2.21-1.8-6.09-1.37-6.29,3.74-1.79,7.25-4,10.89-5.9,1.81-1,1.9,1.34,2.43,2.31,4.46,8.11,8.78,16.29,13.24,24.39.77,1.4.88,3.91,3.26,3.5,2.67-.47,1.39-2.9,1.39-4.37,0-6.72-.29-13.44-.29-20.16,0-1.36-.57-3.58,1.71-3.86,3.71-.44,7-3,10.8-2.38,1,.16.5,1.71.49,2.62-.22,14.66-.39,29.32-.77,44-.07,2.71-.38,5.8-1.74,8a13.62,13.62,0,0,1-7.72,6.25c-4.63,1.26-4.25-3.43-5.88-5.5C876,195.2,872,187.47,867.28,179.26Z" transform="translate(-19.43 -18.25)"/><path class="cls-1" d="M515.14,208.16c.66-7,1.87-13.49,1.47-20-.09-1.54.51-3.71-1.39-4.12-6.48-1.37-2.69-4.22-.77-6.08,4.54-4.41,2.92-9.94,3.37-15.11.28-3.31-1.17-8.14,1.52-9.51,3.81-1.94,8.78-1.85,13.29-2.11,3-.18,1.92,2.67,1.62,4-1,4.51-.84,9.05-.91,13.6,0,3.27,1.24,4.28,4.61,4.22,10-.15,10.13,0,10.32-9.49.06-3.15-.93-7.67,1.15-9,3.77-2.44,8.7-3.2,13.23-4.33,2.79-.7,2.11,2.11,2.06,3.16-.81,16.16-1.93,32.3-2.65,48.47-.15,3.35-2.42,3.09-4.26,3.71-12.06,4-12.07,4-11.2-8.77.06-.79.06-1.59.17-2.38,1.47-10.28,1.47-10.09-9.17-10.48-3.59-.14-5.25.78-5.13,4.38a2.88,2.88,0,0,1-.07.59C530.65,204,530.65,204,515.14,208.16Z" transform="translate(-19.43 -18.25)"/><path class="cls-3" d="M597.58,55.12c1.82,14.25,1.88,28.4-2.17,42.28C592,109.21,579.56,118,567.17,117.94c-8.62-.07-14.35-4.62-15.86-13-2.44-13.45.16-26.81,1-40.2.2-3.15,2.94-2.49,5-2.89,10.6-2.1,10.75-2.13,10.54,8.71-.18,9.1-.77,18.19-1.14,27.29-.17,3.92,0,8,5,8.68s7.88-2.57,9.21-6.74c2.47-7.79,2.76-15.85,2.19-24C581.76,56.41,578.89,61.56,597.58,55.12Z" transform="translate(-19.43 -18.25)"/><path class="cls-5" d="M654,168.66c1,6.88-1.32,14.53-.39,22.22.31,2.57.23,5.67,4.3,6,3.75.3,6.64-.64,8.5-4a26,26,0,0,0,3.15-12.47c.08-8.51.59-17.06-.59-25.53-.39-2.8.1-4.06,3-5.24,13.2-5.33,13.08-5.47,13.19,8.74.07,9.28.11,18.52-2.39,27.59-3.21,11.66-13.74,21-25.53,22.47-11.58,1.44-18.93-4.49-19.85-16.42s.86-24.1,1.12-36.16c0-2.41,1.58-2.92,3.4-3.28,2.51-.49,5.23-.46,7.51-1.45,5.87-2.55,5.88.49,5.36,4.85C654.28,159.89,654.23,163.87,654,168.66Z" transform="translate(-19.43 -18.25)"/><path class="cls-5" d="M337.17,112.35c4.09-8.66,4.09-8.66,1.46-17.16,5.59,1.63,7.21-2.14,8.89-6.09,3.67-8.67,7.59-17.23,10.15-26.32,1.05-3.71,10.55-8.62,14.17-7.46,1.27.4,1,1.47,1.27,2.36,5.3,17.43,10.58,34.86,16,52.24.85,2.7.79,4.18-2.39,4.5a17.31,17.31,0,0,0-3.4,1c-4.73,1.51-9.83,4-9.87-4.64,0-2-1.55-3.15-3.6-3.21-5-.14-10-.41-14.92-.24-3.78.13-4,4.12-5.27,6.41-1.75,3.25-2.89,4-5.95,1.71C341.93,114.07,339.57,113.44,337.17,112.35Zm20.48-15.67c3,0,5.38-.08,7.73,0,2.75.12,4.62.11,3.08-3.7-1.67-4.12-2-8.73-4.34-13.09A76.89,76.89,0,0,0,357.65,96.68Z" transform="translate(-19.43 -18.25)"/><path class="cls-6" d="M69.83,124.63,80.25,66.47c.33-1.83,2.09-4.29-.36-5.24-2-.79-4.81-2.38-7,.44-1.83,2.37-3.95,2.53-6,.19-2.25-2.61-1.75-9.11.87-11,2.79-2,4.4-.26,5.64,2.06,1.66,3.1,4.77,2.79,7.37,2.71,2.85-.08,1.91-3.13,2.22-4.77.47-2.51,2.61-5.68-.13-7.68-2.32-1.69-4.45.28-6.68,1.87-3.1,2.2-6.24-1.54-5.88-6.76.17-2.53.9-4.9,3.4-5.81,2.34-.85,3.63,1,4.6,2.83,1.26,2.34,3.53,2.6,5.66,2.45,2.55-.18,1.78-2.65,2.22-4.23.27-1,.39-2,.6-2.91.94-4.18-.07-10.86,3.13-11.94,4.36-1.46,10,.93,15.11,1.65,2.28.32,2.26,1.52,1.6,3.37-1.54,4.29-2.89,8.64-4.28,13-.39,1.24-1.6,2.69,0,3.71,1.33.85,3,1.19,4.39-.16,3.07-2.92,5.4-2,6.84,1.57,1.58,3.87,1.15,7.59-2.6,10-2.27,1.44-4-.64-4.58-2.44a5.32,5.32,0,0,0-5.49-3.69c-3,0-2.44,3.16-3.46,4.91a10.24,10.24,0,0,0-.91,2.82c-.37,1.57-2.28,3.48-.15,4.65,1.56.86,3.9,1.51,5.61-.12,2.83-2.69,5.1-2,6.62,1.15,1.81,3.73,1.59,7.54-2,10.13-2.39,1.73-4.32-.17-5.1-2.31-1.25-3.48-4.17-3.42-6.82-3.53-3.14-.14-2.8,3-3.45,4.8-6.15,17-12.13,34-18.18,51C72.53,120.75,72.35,122.57,69.83,124.63Z" transform="translate(-19.43 -18.25)"/><path class="cls-4" d="M992.19,81.77a71.49,71.49,0,0,0-3.38,7.35c-1.17,3.59-2.89,5.4-7.17,5.17-6.34-.34-3.09,5.31-3.93,8.06-1.07,3.55,2.58,2.47,4.42,2.51,6.34.13,12.67,0,19.1,0-7,13.12-13.8,16-30.82,12.48-4.07-.84-9.59,1.37-11.88-2.06s2.93-6.6,3.88-10.25a56,56,0,0,0,1.22-7.55c.13-1.11.49-3.06-.71-3.18-8.69-.87-2.36-4.67-1.06-6.53,3.49-5,3.27-10.59,2.8-16-.33-3.79-4.48,0-6.28-2.21,2.59-7.12,7.88-10.49,16-10.12C984.16,60,994,60.89,1004,58,999.54,69.7,997,71.41,984.75,71.52c-1.58,0-3.63-1.14-4.65,1.28a15.85,15.85,0,0,0-.64,8.77c.22,1.38,2,.7,3.14.66C985.56,82.14,988.52,82,992.19,81.77Z" transform="translate(-19.43 -18.25)"/><path class="cls-7" d="M60.7,153.5l4.24-10.14,1.25.32c-1.58,9.23-3,18.49-4.77,27.68-4.57,23.4.8,43.6,19.17,59.57,8.55,7.44,18.74,11.76,29.74,14.3a52.88,52.88,0,0,0,8.42,1.46H98.83c-3.54-.72-7-1.89-10.73-1.1-11.47-1.66-21.69-6.52-31.6-12.18-.21-1-.07-2.22-1.61-2.27l.11.11c-.42-1.19-.81-2.43-2.44-1.23l.07.1c1.6-1.78-.55-2.32-1.2-3.17-7.16-9.34-9.09-19.57-5.35-30.74,4.51-13.47,9.12-26.91,13.69-40.37Z" transform="translate(-19.43 -18.25)"/><path class="cls-5" d="M916.87,73.56c-6.55-2.88-13-5.16-19.44.14a18.37,18.37,0,0,0-5.32,22.41c3.25,7.3,10.68,10.74,20.62,8.47,5.09-1.17,5.63-1.24,4.79,4.5-.93,6.42-4,7.82-9.37,8.63-21,3.16-34.3-11.93-35.24-27.16-1-16.47,12.92-31.42,29.51-32.24,13.33-.67,14.27.18,14.67,13.38A14,14,0,0,1,916.87,73.56Z" transform="translate(-19.43 -18.25)"/><path class="cls-5" d="M726.72,73.3c-12.69-4.33-16.9-3.56-23,4.36-4.64,6-4.17,12.75-1.43,19,2.55,5.84,7.7,8.83,14.46,8.21,1.59-.14,3.37-.49,4.74.06,2.31.93,5.1-3.71,6.54.26s-3,11.07-6.61,11.71c-20,3.53-33.14-4.15-37.76-22-4.26-16.47,10.09-35.72,27.23-36.54.6,0,1.19,0,1.79,0C727.14,58.21,727.39,58.47,726.72,73.3Z" transform="translate(-19.43 -18.25)"/><path class="cls-3" d="M607.3,100.14c5,3.2,8.59,7,14.18,6,2-.34,4.2-.13,4.93-2.46a5.21,5.21,0,0,0-2-5.81,48.87,48.87,0,0,0-6.75-4.83c-12-6.62-9.31-20.86-1.41-28.19,5.67-5.25,12.82-7.86,20.78-5.12,4.77,1.65,8.61,4.09,7.43,10.27-.43,2.21-.07,4.57-.07,7.48-3.63-2.47-6.48-4.94-9.76-6.48-2.79-1.32-6.59-2.23-8.73.84s-.66,6.55,2.18,8.89a53.6,53.6,0,0,0,9.12,6.61c11.26,5.83,8.1,19,.87,24.06-7.85,5.46-16.56,8-26.38,5.54-4-1-5.08-2.66-4.5-6.53C607.67,107.35,607.3,104.13,607.3,100.14Z" transform="translate(-19.43 -18.25)"/><path class="cls-3" d="M730.57,168.23c-4.15-3.44-7.18-6.72-11.73-7.36-2.56-.35-5.36-.64-6.85,2.22s-.24,5.41,2,7.3a81.54,81.54,0,0,0,9.43,7.16c12.11,7.43,8.19,20.26-.53,25.63-7.36,4.53-15.38,6.61-24.32,4.41-4.14-1-5.68-2.73-5.12-6.74.18-1.37,0-2.79.18-4.15.24-1.64-.95-3.91,1-4.77,1.54-.69,2.78,1.13,4,2.06a12,12,0,0,0,8.83,2.75c2.21-.23,4.63-.29,5.4-2.79s-.54-4.6-2.63-6.1c-1.45-1-2.93-2-4.41-3-6.22-4.18-11-9-9.19-17.49,1.93-9.25,7.23-15,16.4-17.21a19.88,19.88,0,0,1,5.86-.73c8.85.63,11.65,3.8,11.67,12.83Z" transform="translate(-19.43 -18.25)"/><path class="cls-2" d="M762.84,100.36c5.29,2.63,8.73,6.87,14.33,5.85,2-.36,4.14-.2,4.88-2.55a5.33,5.33,0,0,0-1.9-5.88A46.38,46.38,0,0,0,774.82,94c-6-3.82-10.57-8.56-9.29-16.37,1.5-9.23,7-15.33,15.91-17.91,2.5-.72,5.14-1.38,8.14-.7,9.3,2.12,10.3,3,10.31,12.26v6.25c-3.34-2.57-6-5.27-9.5-6.58-3-1.15-6.43-1.82-8.69,1.25-2.38,3.25-.28,6,2.13,8.18,2.63,2.36,5.32,4.85,8.42,6.45,12.2,6.33,9,20.08.22,25.53-7.53,4.66-15.7,6.91-24.83,4.58-3.86-1-5.25-2.52-4.86-6.37C763.09,107.48,762.84,104.31,762.84,100.36Z" transform="translate(-19.43 -18.25)"/><path class="cls-3" d="M472.09,173.06a3.67,3.67,0,0,1,.1.87c-3.1,11.75-3.11,12.06-15.52,11.69-4.37-.13-5.56,1.51-5.85,5.1,0,.59,0,1.19-.06,1.78-1,13.05-1,13.05-15.24,15.85-.92-5.59,1.33-10.95,1.07-16.49-.17-3.53,2.19-7.22-2.11-10.05-1.62-1.06.15-2.68,1-3.43,4.17-3.5,3.91-8,2.77-12.45-1-3.86-.24-7.89-1.7-11.72-1-2.68.28-4.57,3.36-4.62,5.37-.07,10.34-2.67,16.19-.92,5.19,1.55,10.87-1.46,16.51-1,2.91.23,4.05.55,2.56,3.7-5.56,11.7-1.74,10.26-15.65,10.73-2.09.07-5.38-1.21-6,.87a20.64,20.64,0,0,0-.22,10c.39,2,3.2,1,4.78.76A53.6,53.6,0,0,1,472.09,173.06Z" transform="translate(-19.43 -18.25)"/><path class="cls-1" d="M1024.89,117.35c1.22-14.06,2-27.82,2.16-41.62,0-3.6-.89-5-4.66-4.62s-7.52.08-11.49.08a4,4,0,0,1,0-1.28c3.6-11.61,5.93-13.55,18.09-13.21,8.65.23,17.25,2,26,.43,3.24-.6,3.88,1,2.58,3.76a13.15,13.15,0,0,0-1.57,4.4c-.33,4.49-2.92,5.67-6.82,5-5.57-1-6.61,1.42-6.73,6.64-.22,10-1.47,20-2.34,30.07-.31,3.61-1.78,6.23-5.72,7.19C1031.2,114.93,1028.17,116.22,1024.89,117.35Z" transform="translate(-19.43 -18.25)"/><path class="cls-3" d="M1087.38,75.45c1.06-1.64,2.38-2.86,2.72-4.31,2.38-10.27,8.62-15.28,19.5-14.12-2,7.65-6.23,14.74-10,21.95-4.34,8.29-7.75,16.73-7.94,26.2a6.54,6.54,0,0,1-4.62,6.65c-4.22,1.62-8.3,3.57-13,5.64,1.06-6.3,2.13-12,2.94-17.66.86-5.93.74-11.64-2.59-17.13a131.54,131.54,0,0,1-9.19-19.14c-1-2.54-.6-3.25,2-4,10.41-2.95,10.38-3,14.86,6.77C1083.39,69.34,1084.69,72.41,1087.38,75.45Z" transform="translate(-19.43 -18.25)"/><path class="cls-1" d="M752.55,207.8c.58-13.45,1.05-26.61,1.78-39.76.28-5.06-.37-8-6.69-6.32-2.94.8-6.28.13-9.44.13-.1-.39-.35-.8-.25-1.1,4-11.94,8.36-14.88,21.45-13.65,7.44.7,14.77,2.37,22.3.66,3.6-.82,5,.5,2.86,4.1a8.06,8.06,0,0,0-1.16,3.3c-.4,4.68-2.9,6.41-7.44,5.68-4.38-.71-6.07.63-6.18,5.59-.21,10-1.41,20.06-2.27,30.08-.36,4.17-1.82,7.42-6.57,8.41C758.09,205.51,755.39,206.8,752.55,207.8Z" transform="translate(-19.43 -18.25)"/><path class="cls-8" d="M56.5,233.41c9.91,5.66,20.13,10.52,31.6,12.18,0,.61.07,1.22.1,1.83-13.35-.69-26.6-1.93-39.31-6.47A75,75,0,0,1,36,234.86c-15.89-9.35-20.91-29-12.55-42.71,1.31-2.16,2.14-4.6,3.81-8.25,2.25,19.85,8.48,36.08,25.39,46.22l-.07-.1c.24,1.55.86,2.35,2.44,1.23l-.11-.11C54,232.9,55.13,233.24,56.5,233.41Z" transform="translate(-19.43 -18.25)"/><path class="cls-9" d="M310.57,117.42c1.61-19.16,3.08-37.7,2.75-56.31,0-2,.92-2.53,2.83-2.87,4.07-.7,8.06-1.85,12.28-2.86,1.44,4-.81,7.89-1,11.9-.51,13.26-.29,26.51-.17,39.76,0,3.85-1,6.21-5.14,7C318.52,114.75,315,116.1,310.57,117.42Z" transform="translate(-19.43 -18.25)"/><path class="cls-5" d="M159.28,117.34A441.47,441.47,0,0,0,161.53,68c-.07-8,5.6-12.76,13.57-12,2.72.25,2,2,1.85,3.4-2.06,16.8-.89,33.67-1.2,50.51,0,1.57,0,2.89-2.25,3.4C168.77,114.31,164.17,115.9,159.28,117.34Z" transform="translate(-19.43 -18.25)"/><path class="cls-5" d="M928.8,117.59c2.65-18.06,2.74-35.63,2.76-53.2,0-2.14.16-5.54,1.92-5.7,4.38-.42,8.21-3.27,12.68-2.56,1.2.2.92,1.6.8,2.52-2.15,16.94-.93,34-1.23,50.94,0,2-.56,3.13-2.84,3.69C938.33,114.39,933.9,116,928.8,117.59Z" transform="translate(-19.43 -18.25)"/><path class="cls-5" d="M654.86,117.53c1.71-19.48,3.08-38,2.79-56.66,0-1.74.69-2.65,2.37-2.65,4.46,0,8.4-2.07,12.79-3,1.14,4.14-.75,8.11-1,12.15-1,13.88-.73,27.76-.83,41.65,0,2.37-.25,3.87-3.23,4.43C663.72,114.26,659.88,115.9,654.86,117.53Z" transform="translate(-19.43 -18.25)"/><path class="cls-10" d="M98,150.55c-7.16-.07-14.29-.37-21.16-2.63-2.57-.85-6.08-1.31-6.26-4.56-.18-3.45,3.44-4.15,6-4.82a81.47,81.47,0,0,1,43.46,0c2.55.71,6.18,1.34,6,4.73-.15,3.18-3.69,3.78-6.27,4.61C112.7,150.17,105.37,150.55,98,150.55Z" transform="translate(-19.43 -18.25)"/><path class="cls-11" d="M60.7,153.5l-.93,2.34c-1.34-.34-2.67-.8-4-1-4.41-.66-9.32-4.75-12.77-2.42-3.28,2.22-4.31,7.75-6.31,11.84C34.34,169,32,173.73,28.4,178c1.86-8.1,3.5-16.27,5.67-24.29,1-3.79,1-6.2-3.2-7.91-3-1.23-7.12-3.11-6.5-6.79.56-3.22,5-3.52,8-4.24,11.81-2.82,23.89-3.81,36-5,.32,3.16-2.17,2.76-3.58,3.2-4.36,1.35-8.8,2.49-12.75,4.88-5.1,3.08-5.43,7-.9,10.91C53.88,151.19,57.3,152.34,60.7,153.5Z" transform="translate(-19.43 -18.25)"/><path class="cls-12" d="M88.2,247.42c0-.61-.06-1.22-.1-1.83,3.7-.79,7.19.38,10.73,1.1C95.39,248.47,91.8,248,88.2,247.42Z" transform="translate(-19.43 -18.25)"/></g></g></svg>